<mxfile host="app.diagrams.net" agent="Mozilla/5.0 (Windows NT 10.0; Win64; x64) AppleWebKit/537.36 (KHTML, like Gecko) Chrome/134.0.0.0 Safari/537.36 OPR/119.0.0.0" version="27.1.6">
  <diagram name="Page-1" id="Fo5XV_NB5uOfJqhBMx_1">
    <mxGraphModel dx="643" dy="762" grid="1" gridSize="10" guides="1" tooltips="1" connect="1" arrows="1" fold="1" page="1" pageScale="1" pageWidth="827" pageHeight="1169" math="0" shadow="0">
      <root>
        <mxCell id="0" />
        <mxCell id="1" parent="0" />
        <mxCell id="jwY8deCd0DAcdj9bmGKt-13" value="" style="edgeStyle=orthogonalEdgeStyle;rounded=0;orthogonalLoop=1;jettySize=auto;html=1;" edge="1" parent="1" source="jwY8deCd0DAcdj9bmGKt-1" target="jwY8deCd0DAcdj9bmGKt-2">
          <mxGeometry relative="1" as="geometry" />
        </mxCell>
        <mxCell id="jwY8deCd0DAcdj9bmGKt-1" value="Inicio" style="ellipse;whiteSpace=wrap;html=1;" vertex="1" parent="1">
          <mxGeometry x="354" y="10" width="120" height="80" as="geometry" />
        </mxCell>
        <mxCell id="jwY8deCd0DAcdj9bmGKt-14" value="" style="edgeStyle=orthogonalEdgeStyle;rounded=0;orthogonalLoop=1;jettySize=auto;html=1;" edge="1" parent="1" source="jwY8deCd0DAcdj9bmGKt-2" target="jwY8deCd0DAcdj9bmGKt-3">
          <mxGeometry relative="1" as="geometry" />
        </mxCell>
        <mxCell id="jwY8deCd0DAcdj9bmGKt-2" value="Suma_digitos" style="shape=process;whiteSpace=wrap;html=1;backgroundOutline=1;" vertex="1" parent="1">
          <mxGeometry x="354" y="130" width="120" height="60" as="geometry" />
        </mxCell>
        <mxCell id="jwY8deCd0DAcdj9bmGKt-15" value="" style="edgeStyle=orthogonalEdgeStyle;rounded=0;orthogonalLoop=1;jettySize=auto;html=1;" edge="1" parent="1" source="jwY8deCd0DAcdj9bmGKt-3" target="jwY8deCd0DAcdj9bmGKt-5">
          <mxGeometry relative="1" as="geometry" />
        </mxCell>
        <mxCell id="jwY8deCd0DAcdj9bmGKt-17" value="" style="edgeStyle=orthogonalEdgeStyle;rounded=0;orthogonalLoop=1;jettySize=auto;html=1;" edge="1" parent="1" source="jwY8deCd0DAcdj9bmGKt-3" target="jwY8deCd0DAcdj9bmGKt-4">
          <mxGeometry relative="1" as="geometry" />
        </mxCell>
        <mxCell id="jwY8deCd0DAcdj9bmGKt-3" value="n == 0 ?" style="rhombus;whiteSpace=wrap;html=1;" vertex="1" parent="1">
          <mxGeometry x="356" y="230" width="116" height="120" as="geometry" />
        </mxCell>
        <mxCell id="jwY8deCd0DAcdj9bmGKt-18" value="" style="edgeStyle=orthogonalEdgeStyle;rounded=0;orthogonalLoop=1;jettySize=auto;html=1;" edge="1" parent="1" source="jwY8deCd0DAcdj9bmGKt-4" target="jwY8deCd0DAcdj9bmGKt-7">
          <mxGeometry relative="1" as="geometry" />
        </mxCell>
        <mxCell id="jwY8deCd0DAcdj9bmGKt-4" value="No" style="text;html=1;align=center;verticalAlign=middle;whiteSpace=wrap;rounded=0;" vertex="1" parent="1">
          <mxGeometry x="500" y="275" width="60" height="30" as="geometry" />
        </mxCell>
        <mxCell id="jwY8deCd0DAcdj9bmGKt-16" value="" style="edgeStyle=orthogonalEdgeStyle;rounded=0;orthogonalLoop=1;jettySize=auto;html=1;" edge="1" parent="1" source="jwY8deCd0DAcdj9bmGKt-5" target="jwY8deCd0DAcdj9bmGKt-6">
          <mxGeometry relative="1" as="geometry" />
        </mxCell>
        <mxCell id="jwY8deCd0DAcdj9bmGKt-5" value="Si" style="text;html=1;align=center;verticalAlign=middle;whiteSpace=wrap;rounded=0;" vertex="1" parent="1">
          <mxGeometry x="220" y="275" width="60" height="30" as="geometry" />
        </mxCell>
        <mxCell id="jwY8deCd0DAcdj9bmGKt-6" value="Devuelve acum" style="rounded=0;whiteSpace=wrap;html=1;" vertex="1" parent="1">
          <mxGeometry x="190" y="350" width="120" height="60" as="geometry" />
        </mxCell>
        <mxCell id="jwY8deCd0DAcdj9bmGKt-19" value="" style="edgeStyle=orthogonalEdgeStyle;rounded=0;orthogonalLoop=1;jettySize=auto;html=1;" edge="1" parent="1" source="jwY8deCd0DAcdj9bmGKt-7" target="jwY8deCd0DAcdj9bmGKt-9">
          <mxGeometry relative="1" as="geometry" />
        </mxCell>
        <mxCell id="jwY8deCd0DAcdj9bmGKt-7" value="ultimo numero = n%10" style="rounded=0;whiteSpace=wrap;html=1;" vertex="1" parent="1">
          <mxGeometry x="470" y="370" width="120" height="60" as="geometry" />
        </mxCell>
        <mxCell id="jwY8deCd0DAcdj9bmGKt-20" value="" style="edgeStyle=orthogonalEdgeStyle;rounded=0;orthogonalLoop=1;jettySize=auto;html=1;" edge="1" parent="1" source="jwY8deCd0DAcdj9bmGKt-9" target="jwY8deCd0DAcdj9bmGKt-11">
          <mxGeometry relative="1" as="geometry" />
        </mxCell>
        <mxCell id="jwY8deCd0DAcdj9bmGKt-9" value="nuevo_n=n//10" style="rounded=0;whiteSpace=wrap;html=1;" vertex="1" parent="1">
          <mxGeometry x="470" y="470" width="120" height="60" as="geometry" />
        </mxCell>
        <mxCell id="jwY8deCd0DAcdj9bmGKt-21" value="" style="edgeStyle=orthogonalEdgeStyle;rounded=0;orthogonalLoop=1;jettySize=auto;html=1;" edge="1" parent="1" source="jwY8deCd0DAcdj9bmGKt-10" target="jwY8deCd0DAcdj9bmGKt-12">
          <mxGeometry relative="1" as="geometry" />
        </mxCell>
        <mxCell id="jwY8deCd0DAcdj9bmGKt-10" value="nuevo_acum = acum&lt;div&gt;+ ultimo_numero&lt;/div&gt;" style="rounded=0;whiteSpace=wrap;html=1;" vertex="1" parent="1">
          <mxGeometry x="470" y="555" width="120" height="60" as="geometry" />
        </mxCell>
        <mxCell id="jwY8deCd0DAcdj9bmGKt-22" value="" style="edgeStyle=orthogonalEdgeStyle;rounded=0;orthogonalLoop=1;jettySize=auto;html=1;" edge="1" parent="1" source="jwY8deCd0DAcdj9bmGKt-11" target="jwY8deCd0DAcdj9bmGKt-12">
          <mxGeometry relative="1" as="geometry" />
        </mxCell>
        <mxCell id="jwY8deCd0DAcdj9bmGKt-11" value="Llamar suma&lt;div&gt;nuevo_n, nuevo_acum&lt;/div&gt;" style="rounded=0;whiteSpace=wrap;html=1;" vertex="1" parent="1">
          <mxGeometry x="470" y="640" width="120" height="60" as="geometry" />
        </mxCell>
        <mxCell id="jwY8deCd0DAcdj9bmGKt-12" value="Retornar resultado&lt;div&gt;recursion&lt;/div&gt;" style="rounded=0;whiteSpace=wrap;html=1;" vertex="1" parent="1">
          <mxGeometry x="472" y="730" width="120" height="60" as="geometry" />
        </mxCell>
      </root>
    </mxGraphModel>
  </diagram>
</mxfile>
